<svg preserveAspectRatio="none" overflow="visible" style="display: block;" width="13" height="12.705" viewBox="0 0 13 12.705" fill="none" xmlns="http://www.w3.org/2000/svg">
<g id="Vector">
<path d="M9 11.295L7.705 10L7 10.705L9 12.705L13 8.705L12.295 8L9 11.295Z" fill="#161616"/>
<path d="M6 7C6.55229 7 7 6.55229 7 6C7 5.44772 6.55229 5 6 5C5.44772 5 5 5.44772 5 6C5 6.55229 5.44772 7 6 7Z" fill="#161616"/>
<path d="M6 9C5.40666 9 4.82664 8.82406 4.33329 8.49441C3.83994 8.16477 3.45543 7.69623 3.22836 7.14805C3.0013 6.59987 2.94189 5.99668 3.05765 5.41473C3.1734 4.83279 3.45913 4.29824 3.87868 3.87868C4.29824 3.45913 4.83279 3.1734 5.41473 3.05765C5.99668 2.94189 6.59987 3.0013 7.14805 3.22836C7.69623 3.45543 8.16477 3.83994 8.49441 4.33329C8.82406 4.82664 9 5.40666 9 6C8.99913 6.79538 8.68278 7.55794 8.12036 8.12036C7.55794 8.68278 6.79538 8.99913 6 9ZM6 4C5.60444 4 5.21776 4.1173 4.88886 4.33706C4.55996 4.55683 4.30362 4.86918 4.15224 5.23464C4.00087 5.60009 3.96126 6.00222 4.03843 6.39018C4.1156 6.77815 4.30608 7.13451 4.58579 7.41422C4.86549 7.69392 5.22186 7.8844 5.60982 7.96157C5.99778 8.03874 6.39992 7.99914 6.76537 7.84776C7.13082 7.69639 7.44318 7.44004 7.66294 7.11114C7.8827 6.78224 8 6.39557 8 6C7.99941 5.46975 7.7885 4.96139 7.41356 4.58645C7.03862 4.2115 6.53025 4.0006 6 4Z" fill="#161616"/>
<path d="M12 6C12 4.81331 11.6481 3.65328 10.9888 2.66658C10.3295 1.67989 9.39246 0.910851 8.2961 0.456726C7.19975 0.00259972 5.99335 -0.11622 4.82946 0.115291C3.66558 0.346802 2.59648 0.918247 1.75736 1.75736C0.918247 2.59648 0.346802 3.66558 0.115291 4.82946C-0.11622 5.99335 0.00259972 7.19975 0.456726 8.2961C0.910851 9.39246 1.67989 10.3295 2.66658 10.9888C3.65328 11.6481 4.81331 12 6 12V11C5.0111 11 4.0444 10.7068 3.22215 10.1574C2.39991 9.60794 1.75904 8.82705 1.38061 7.91342C1.00217 6.99979 0.90315 5.99446 1.09608 5.02455C1.289 4.05465 1.76521 3.16373 2.46447 2.46447C3.16373 1.76521 4.05465 1.289 5.02455 1.09608C5.99446 0.90315 6.99979 1.00217 7.91342 1.38061C8.82705 1.75904 9.60794 2.39991 10.1574 3.22215C10.7068 4.0444 11 5.0111 11 6H12Z" fill="#161616"/>
</g>
</svg>
